<svg width="192" height="103" viewBox="0 0 192 103" fill="none" xmlns="http://www.w3.org/2000/svg">
<path fill-rule="evenodd" clip-rule="evenodd" d="M118.946 0C118.004 0.00565885 117.061 0.159991 116.145 0.466083C116.136 0.46917 116.127 0.471742 116.117 0.475343L107.621 3.34232C101.76 -0.110605 94.7312 -0.854486 88.2746 1.30154C88.2515 1.30925 88.2273 1.318 88.2042 1.3252C79.3114 4.32645 73.079 12.5338 72.695 21.7485C72.6768 22.1846 73.1017 22.5034 73.5153 22.3638L78.2054 20.7813C78.4251 20.7072 78.5847 20.5159 78.6182 20.2865C79.5397 13.9588 83.934 8.73881 90.087 6.66201C90.1055 6.65635 90.1218 6.65069 90.1396 6.64452C95.9252 4.71229 102.136 5.96876 106.637 9.54728C106.677 9.57937 106.731 9.58904 106.78 9.57266L118 5.81215L118.009 5.80907C119.601 5.27765 121.339 6.10847 121.888 7.66414C122.438 9.2229 121.589 10.9283 119.997 11.4669L120 11.4761L69.5683 28.4753C67.3424 29.2269 65.5469 30.7836 64.5129 32.8604C63.4794 34.9367 63.3332 37.2795 64.101 39.4571C64.8689 41.6347 66.461 43.391 68.5837 44.4019C70.7064 45.4133 73.0947 45.5604 75.3284 44.8052L83.8251 41.9377C89.6857 45.3912 96.7135 46.1356 103.17 43.979C103.193 43.9708 103.217 43.9626 103.24 43.9554C112.134 40.9541 118.367 32.7462 118.751 23.5316C118.769 23.0954 118.344 22.7767 117.93 22.9163L113.24 24.4992C113.021 24.5734 112.861 24.7646 112.827 24.9941C111.905 31.3212 107.511 36.5418 101.358 38.6175C101.34 38.6237 101.323 38.6299 101.306 38.6361C95.5215 40.5667 89.3135 39.3123 84.8138 35.7368C84.7735 35.7048 84.7197 35.6951 84.6708 35.7115L73.4455 39.4679C73.4455 39.4679 73.4398 39.47 73.4361 39.471C71.8446 40.0024 70.1058 39.1721 69.5572 37.6164C69.0071 36.0572 69.8565 34.3508 71.4511 33.8121L121.877 16.8052C125.523 15.5747 127.82 12.2277 127.828 8.65084V8.61997C127.826 7.69141 127.671 6.74844 127.345 5.82296C126.576 3.64533 124.984 1.88903 122.861 0.878151C121.65 0.300948 120.35 0.00668773 119.043 0H118.946Z" fill="url(#paint0_linear_897_2622)"/>
<path d="M1.96094 81.6141C1.96094 75.8912 5.73882 71.8514 11.1999 71.8514C16.2495 71.8514 19.6908 74.6568 20.177 79.108H15.6137C15.09 77.0133 13.5564 75.9286 11.3869 75.9286C8.46936 75.9286 6.52432 78.1354 6.52432 81.6141C6.52432 85.0927 8.31974 87.2622 11.2373 87.2622C13.519 87.2622 15.1274 86.14 15.6137 84.1202H20.2145C19.6534 88.4217 16.0625 91.3767 11.2373 91.3767C5.6266 91.3767 1.96094 87.4866 1.96094 81.6141Z" fill="white"/>
<path d="M22.5262 81.6141C22.5262 75.8537 26.6782 71.8888 32.4011 71.8888C38.124 71.8888 42.2759 75.8537 42.2759 81.6141C42.2759 87.3744 38.124 91.3393 32.4011 91.3393C26.6782 91.3393 22.5262 87.3744 22.5262 81.6141ZM27.0896 81.6141C27.0896 84.9805 29.2591 87.2622 32.4011 87.2622C35.5431 87.2622 37.7126 84.9805 37.7126 81.6141C37.7126 78.2477 35.5431 75.966 32.4011 75.966C29.2591 75.966 27.0896 78.2477 27.0896 81.6141Z" fill="white"/>
<path d="M44.4717 85.2797H48.8107C48.8481 86.8881 50.045 87.8981 52.1397 87.8981C54.2718 87.8981 55.4313 87.0378 55.4313 85.6912C55.4313 84.7561 54.945 84.0828 53.2992 83.7087L49.9702 82.9232C46.6412 82.1751 45.0328 80.6041 45.0328 77.6492C45.0328 74.0209 48.1 71.8514 52.3641 71.8514C56.516 71.8514 59.3214 74.2453 59.3588 77.8362H55.0199C54.9825 76.2652 53.9351 75.2553 52.1771 75.2553C50.3817 75.2553 49.3343 76.0782 49.3343 77.4621C49.3343 78.5095 50.1572 79.1828 51.7282 79.5568L55.0573 80.3423C58.1619 81.053 59.7329 82.4744 59.7329 85.3171C59.7329 89.0576 56.5535 91.3767 51.9901 91.3767C47.3893 91.3767 44.4717 88.908 44.4717 85.2797Z" fill="white"/>
<path d="M67.7708 90.8905H63.2074V72.4125H67.3967L67.7708 74.582C68.7059 73.0484 70.5761 71.8514 73.2319 71.8514C76.0372 71.8514 77.9823 73.2354 78.9548 75.3675C79.8899 73.2354 82.0594 71.8514 84.8648 71.8514C89.3533 71.8514 91.822 74.5446 91.822 78.8087V90.8905H87.2961V80.0057C87.2961 77.3499 85.8747 75.966 83.7052 75.966C81.4983 75.966 79.8151 77.3873 79.8151 80.4171V90.8905H75.2517V79.9683C75.2517 77.3873 73.8678 76.0034 71.6983 76.0034C69.5288 76.0034 67.7708 77.4247 67.7708 80.4171V90.8905Z" fill="white"/>
<path d="M95.2171 81.6141C95.2171 75.8537 99.369 71.8888 105.092 71.8888C110.815 71.8888 114.967 75.8537 114.967 81.6141C114.967 87.3744 110.815 91.3393 105.092 91.3393C99.369 91.3393 95.2171 87.3744 95.2171 81.6141ZM99.7805 81.6141C99.7805 84.9805 101.95 87.2622 105.092 87.2622C108.234 87.2622 110.403 84.9805 110.403 81.6141C110.403 78.2477 108.234 75.966 105.092 75.966C101.95 75.966 99.7805 78.2477 99.7805 81.6141Z" fill="white"/>
<path d="M123.185 90.8905H118.659V63.0613H123.185V90.8905Z" fill="white"/>
<path d="M126.887 81.6141C126.887 75.8537 131.039 71.8888 136.762 71.8888C142.485 71.8888 146.637 75.8537 146.637 81.6141C146.637 87.3744 142.485 91.3393 136.762 91.3393C131.039 91.3393 126.887 87.3744 126.887 81.6141ZM131.45 81.6141C131.45 84.9805 133.62 87.2622 136.762 87.2622C139.904 87.2622 142.073 84.9805 142.073 81.6141C142.073 78.2477 139.904 75.966 136.762 75.966C133.62 75.966 131.45 78.2477 131.45 81.6141Z" fill="white"/>
<path d="M149.206 81.24C149.206 75.8537 152.723 71.814 157.997 71.814C160.765 71.814 162.934 72.9736 164.019 74.956L164.281 72.4125H168.507V89.9553C168.507 96.1271 164.804 99.9798 158.819 99.9798C153.508 99.9798 149.88 96.95 149.319 92.0126H153.882C154.181 94.4065 156.014 95.8279 158.819 95.8279C161.961 95.8279 163.981 93.8454 163.981 90.7782V87.7111C162.822 89.4317 160.54 90.5164 157.884 90.5164C152.648 90.5164 149.206 86.5889 149.206 81.24ZM153.807 81.1278C153.807 84.2324 155.79 86.5515 158.782 86.5515C161.924 86.5515 163.869 84.3446 163.869 81.1278C163.869 77.9858 161.961 75.8163 158.782 75.8163C155.752 75.8163 153.807 78.098 153.807 81.1278Z" fill="white"/>
<path d="M171.622 99.4561V95.6409H174.352C176.148 95.6409 177.27 95.2294 178.055 93.0599L178.579 91.676L171.135 72.4125H175.961L180.711 85.8782L185.723 72.4125H190.436L181.384 95.005C180 98.4462 178.055 99.8676 175.025 99.8676C173.754 99.8676 172.631 99.718 171.622 99.4561Z" fill="white"/>
<defs>
<linearGradient id="paint0_linear_897_2622" x1="91.9301" y1="-18.7765" x2="57.6278" y2="34.6205" gradientUnits="userSpaceOnUse">
<stop stop-color="#FEC4C4"/>
<stop offset="1" stop-color="#CB55EF"/>
</linearGradient>
</defs>
</svg>
